# xmcd
#
# Track frame offsets:
#	150
#	15998
#	36733
#	54040
#	73765
#	99550
#	123778
#	143758
#	166512
#	187764
#
# Disc length: 2825 seconds
#
# Revision: 0
# Processed by: cddbd v1.5.2PL0 Copyright (c) Steve Scherf et al.
# Submitted via: EZCDAudioConverter 2.1.7.1
#
DISCID=740b070a
DTITLE=Mo'Horizons - The Banana Remixes 2/2
DYEAR=1900
DGENRE=
TTITLE0=Mustafa - Por Causa De Voce Menina [Mo'Horizons Radio Restyle]
TTITLE1=DJ Farrapo - Avisado [Sono Rhizmo' Remix]
TTITLE2=Una Mas Trio - Clear As Water [Mo'Horizons Radio Restyle]
TTITLE3=A L.A.S. featuring Trio De Cajón - Carnaval De Mi Barrio [Mo'Horizons 
TTITLE3=Carnaval De Santiago Remix]
TTITLE4=Omegaman - O'man Boogaloo [Mo'Horizons Restyle]
TTITLE5=Gypsy Brown - Life Is A Trip [Mo'Horizons Restyle]
TTITLE6=Flamingo Star - Nothing Sweeta [Mo'Horizons Hippie Remix]
TTITLE7=The Soul Session - Struggles and Blessings [Mo'Horizons Longstyle Mix]
TTITLE8=Fab Samperi - Stand Back [Mo'Horizons Restyle]
TTITLE9=International Velvet - Sitargazer [Mo'Horizons Freestyle]
EXTD=
EXTT0=
EXTT1=
EXTT2=
EXTT3=
EXTT4=
EXTT5=
EXTT6=
EXTT7=
EXTT8=
EXTT9=
PLAYORDER=
